<svg width="261" height="59" viewBox="0 0 261 59" fill="none" xmlns="http://www.w3.org/2000/svg">
<g clip-path="url(#clip0_1018_144)">
<rect width="67.5216" height="58.1528" fill="#1A1A1A"/>
<rect width="55.891" height="43.6146" transform="translate(5.81528 7.26904)" fill="white"/>
<path d="M15.9826 29.7812H12.6512V13.4744H20.8435V16.8057H15.9826V19.9556H20.8435V23.287H15.9826V29.7812Z" fill="#1A1A1A"/>
<path d="M25.7045 26.437H28.8544V16.8058H25.7045V26.437ZM23.9934 29.7813V28.148H22.3731V15.0947H23.9934V13.4744H30.5654V15.0947H32.1858V28.148H30.5654V29.7813H23.9934ZM22.4639 13.5263H23.9934V15.0947H22.4639V13.5263ZM30.5654 13.4744H32.1858V15.0947H30.5654V13.4744ZM30.5654 28.148H32.1858V29.7294H30.5654V28.148ZM22.3731 28.148H23.9934V29.7812H22.3731V28.148Z" fill="#1A1A1A"/>
<path d="M41.9077 29.7812H33.7153V26.4369H40.1966V23.287H35.3357V21.6667H33.7153V15.0947H35.3357V13.4744H43.528V16.8057H37.0467V19.9556H41.9077V21.576H43.528V28.148H41.9077V29.7812ZM33.8061 13.5262H35.3357V15.0947H33.8061V13.5262ZM33.7153 21.6667H35.3357V23.287H33.7153V21.6667ZM41.9077 19.9556H43.528V21.576H41.9077V19.9556ZM41.9077 28.148H43.528V29.7294H41.9077V28.148Z" fill="#1A1A1A"/>
<path d="M53.2499 29.7812H45.0576V26.4369H51.5388V23.287H46.6779V21.6667H45.0576V15.0947H46.6779V13.4744H54.8702V16.8057H48.3889V19.9556H53.2499V21.576H54.8702V28.148H53.2499V29.7812ZM45.1483 13.5262H46.6779V15.0947H45.1483V13.5262ZM45.0576 21.6667H46.6779V23.287H45.0576V21.6667ZM53.2499 19.9556H54.8702V21.576H53.2499V19.9556ZM53.2499 28.148H54.8702V29.7294H53.2499V28.148Z" fill="#1A1A1A"/>
<path d="M13.8214 44.6784V43.4961H12.6504V32.8743H15.0579V42.2575H17.3343V32.8743H19.7418V43.4961H18.5709V44.6784H13.8214ZM12.6504 43.4961H13.8214V44.6784H12.6504V43.4961ZM18.5709 43.4961H19.7418V44.6408H18.5709V43.4961Z" fill="#1A1A1A"/>
<path d="M23.2547 44.6784H20.8472V32.8743H27.9386V44.6784H25.5311V35.2858H23.2547V44.6784Z" fill="#1A1A1A"/>
<path d="M31.4516 44.6784H29.044V32.8743H31.4516V44.6784Z" fill="#1A1A1A"/>
<path d="M37.3064 44.6784H34.8989V35.2858H32.557V32.8743H39.6484V35.2858H37.3064V44.6784Z" fill="#1A1A1A"/>
<path d="M46.6742 44.6784H40.7538V32.8743H46.6742V35.2858H43.1613V37.5659H46.6742V39.9774H43.1613V42.2575H46.6742V44.6784Z" fill="#1A1A1A"/>
<path d="M50.1871 42.2575H52.4635V35.2858H50.1871V42.2575ZM47.7796 44.6784V32.8743H53.7V34.0472H54.871V43.4961H53.7V44.6784H47.7796Z" fill="#1A1A1A"/>
<path fill-rule="evenodd" clip-rule="evenodd" d="M5.81528 7.26904H61.7063V50.8837H5.81528V7.26904ZM7.99335 9.44712V48.7056H59.5282V9.44712H7.99335Z" fill="#1A1A1A"/>
<rect width="193.446" height="58.1528" transform="translate(67.5216)" fill="#1A1A1A"/>
<path d="M78.4252 41.7924H73.1944V16.1877H98.7787V41.7924H93.5479V21.4185H88.602V41.7924H83.3711V21.4185H78.4252V41.7924ZM107.632 21.4185V26.3644H112.578V21.4185H107.632ZM107.632 41.7924H102.402V16.1877H117.809V41.7924H112.578V31.5952H107.632V41.7924ZM126.663 41.7924H121.432V16.1877H136.84V41.7924H131.609V21.4185H126.663V41.7924ZM143.007 41.7924V39.2278H140.463V18.7318H143.007V16.1877H155.87V21.4185H145.694V36.5411H150.639V31.5952H148.095V26.3644H155.87V39.2278H153.326V41.7924H143.007ZM140.605 16.2691H143.007V18.7318H140.605V16.2691ZM153.326 39.2278H155.87V41.7109H153.326V39.2278ZM140.463 39.2278H143.007V41.7924H140.463V39.2278ZM164.724 21.4185V26.3644H169.67V21.4185H164.724ZM164.724 41.7924H159.493V16.1877H174.901V41.7924H169.67V31.5952H164.724V41.7924ZM178.524 41.7924V16.1877H183.755V36.5411H191.387V41.7924H178.524ZM200.241 36.5411H205.187V21.4185H200.241V36.5411ZM197.554 41.7924V39.2278H195.01V18.7318H197.554V16.1877H207.873V18.7318H210.418V39.2278H207.873V41.7924H197.554ZM195.153 16.2691H197.554V18.7318H195.153V16.2691ZM207.873 16.1877H210.418V18.7318H207.873V16.1877ZM207.873 39.2278H210.418V41.7109H207.873V39.2278ZM195.01 39.2278H197.554V41.7924H195.01V39.2278ZM219.271 21.4185V26.3644H224.217V21.4185H219.271ZM219.271 41.7924H214.041V16.1877H226.904V18.7318H229.448V29.0511H226.904V31.4528H229.448V41.7924H224.217V31.5952H219.271V41.7924ZM226.904 16.1877H229.448V18.7318H226.904V16.1877ZM245.934 41.7924H233.071V16.1877H245.934V21.4185H238.302V26.3644H245.934V31.5952H238.302V36.5411H245.934V41.7924Z" fill="white"/>
</g>
<defs>
<clipPath id="clip0_1018_144">
<rect width="260.967" height="58.1528" rx="4.36146" fill="white"/>
</clipPath>
</defs>
</svg>

